<svg width="1230" height="487" viewBox="0 0 1230 487" fill="none" xmlns="http://www.w3.org/2000/svg">
<g opacity="0.4">
<path d="M1061.97 233.287V201.532L1057.89 193.672V135.193C1057.89 125.761 1054.95 118.53 1049.08 113.499C1043.42 108.259 1034.31 105.639 1021.73 105.639C1013.56 105.639 1005.28 107.002 996.892 109.726C988.508 112.242 981.382 115.805 975.513 120.416L955.391 79.8582C965.033 73.5702 976.561 68.7494 989.975 65.3957C1003.6 61.8325 1017.12 60.0509 1030.53 60.0509C1058.2 60.0509 1079.58 66.4437 1094.67 79.2294C1109.97 91.8055 1117.62 111.613 1117.62 138.651V233.287H1061.97ZM1011.67 236.116C998.045 236.116 986.517 233.811 977.085 229.199C967.653 224.588 960.421 218.3 955.391 210.335C950.57 202.37 948.16 193.462 948.16 183.611C948.16 173.131 950.78 164.118 956.02 156.572C961.469 148.817 969.749 142.948 980.857 138.966C991.966 134.774 1006.32 132.678 1023.93 132.678H1064.17V163.804H1032.11C1022.46 163.804 1015.65 165.376 1011.67 168.52C1007.9 171.664 1006.01 175.856 1006.01 181.096C1006.01 186.336 1008 190.528 1011.98 193.672C1015.97 196.816 1021.42 198.388 1028.33 198.388C1034.83 198.388 1040.7 196.816 1045.94 193.672C1051.39 190.318 1055.37 185.288 1057.89 178.581L1066.06 200.589C1062.92 212.326 1056.73 221.235 1047.51 227.313C1038.5 233.182 1026.55 236.116 1011.67 236.116Z" fill="white"/>
<path d="M858.14 320.618V0H918.256V320.618H858.14Z" fill="white"/>
<path d="M735.469 236.116C716.814 236.116 700.256 232.343 685.793 224.798C671.331 217.252 659.907 206.877 651.523 193.672C643.349 180.257 639.262 164.957 639.262 147.769C639.262 130.582 643.349 115.386 651.523 102.181C659.907 88.9759 671.331 78.7054 685.793 71.3694C700.256 63.8237 716.814 60.0509 735.469 60.0509C754.123 60.0509 770.682 63.8237 785.144 71.3694C799.817 78.7054 811.24 88.9759 819.414 102.181C827.589 115.386 831.676 130.582 831.676 147.769C831.676 164.957 827.589 180.257 819.414 193.672C811.24 206.877 799.817 217.252 785.144 224.798C770.682 232.343 754.123 236.116 735.469 236.116ZM735.469 188.641C742.386 188.641 748.464 187.069 753.704 183.925C759.154 180.781 763.451 176.17 766.595 170.092C769.739 163.804 771.311 156.363 771.311 147.769C771.311 139.176 769.739 131.944 766.595 126.075C763.451 119.997 759.154 115.386 753.704 112.242C748.464 109.098 742.386 107.526 735.469 107.526C728.762 107.526 722.683 109.098 717.234 112.242C711.993 115.386 707.697 119.997 704.343 126.075C701.199 131.944 699.627 139.176 699.627 147.769C699.627 156.363 701.199 163.804 704.343 170.092C707.697 176.17 711.993 180.781 717.234 183.925C722.683 187.069 728.762 188.641 735.469 188.641Z" fill="white"/>
<path d="M546.619 13.2049H608.871V233.287H546.619V13.2049ZM461.73 233.287H399.479V13.2049H461.73V233.287ZM551.02 147.455H457.329V95.8928H551.02V147.455Z" fill="white"/>
<path d="M1170.15 403.503L1158.52 263.594H1229.57L1217.63 403.503H1170.15ZM1194.05 486.506C1183.57 486.506 1174.97 483.257 1168.27 476.759C1161.56 470.261 1158.21 462.506 1158.21 453.493C1158.21 444.271 1161.56 436.62 1168.27 430.542C1174.97 424.254 1183.57 421.11 1194.05 421.11C1204.53 421.11 1213.02 424.254 1219.51 430.542C1226.22 436.62 1229.57 444.271 1229.57 453.493C1229.57 462.506 1226.22 470.261 1219.51 476.759C1213.02 483.257 1204.53 486.506 1194.05 486.506Z" fill="white"/>
<path d="M1041.87 486.505C1023.22 486.505 1006.66 482.733 992.197 475.187C977.735 467.641 966.311 457.266 957.927 444.061C949.753 430.647 945.666 415.346 945.666 398.158C945.666 380.971 949.753 365.775 957.927 352.57C966.311 339.365 977.735 329.095 992.197 321.759C1006.66 314.213 1023.22 310.44 1041.87 310.44C1060.53 310.44 1077.09 314.213 1091.55 321.759C1106.22 329.095 1117.64 339.365 1125.82 352.57C1133.99 365.775 1138.08 380.971 1138.08 398.158C1138.08 415.346 1133.99 430.647 1125.82 444.061C1117.64 457.266 1106.22 467.641 1091.55 475.187C1077.09 482.733 1060.53 486.505 1041.87 486.505ZM1041.87 439.031C1048.79 439.031 1054.87 437.459 1060.11 434.315C1065.56 431.171 1069.85 426.559 1073 420.481C1076.14 414.193 1077.71 406.752 1077.71 398.158C1077.71 389.565 1076.14 382.333 1073 376.465C1069.85 370.386 1065.56 365.775 1060.11 362.631C1054.87 359.487 1048.79 357.915 1041.87 357.915C1035.17 357.915 1029.09 359.487 1023.64 362.631C1018.4 365.775 1014.1 370.386 1010.75 376.465C1007.6 382.333 1006.03 389.565 1006.03 398.158C1006.03 406.752 1007.6 414.193 1010.75 420.481C1014.1 426.559 1018.4 431.171 1023.64 434.315C1029.09 437.459 1035.17 439.031 1041.87 439.031Z" fill="white"/>
<path d="M811.026 486.505C795.515 486.505 781.367 482.942 768.582 475.816C756.006 468.48 745.945 458.314 738.399 445.319C730.853 432.114 727.081 416.394 727.081 398.158C727.081 380.133 730.853 364.622 738.399 351.627C745.945 338.422 756.006 328.256 768.582 321.13C781.367 314.003 795.515 310.44 811.026 310.44C825.698 310.44 838.065 313.584 848.125 319.872C858.396 326.16 866.151 335.802 871.391 348.797C876.631 361.792 879.251 378.246 879.251 398.158C879.251 418.49 876.736 435.153 871.706 448.148C866.675 461.144 859.13 470.785 849.069 477.073C839.008 483.361 826.327 486.505 811.026 486.505ZM823.602 439.031C830.309 439.031 836.283 437.459 841.523 434.315C846.973 431.171 851.269 426.559 854.413 420.481C857.558 414.193 859.13 406.752 859.13 398.158C859.13 389.565 857.558 382.333 854.413 376.465C851.269 370.386 846.973 365.775 841.523 362.631C836.283 359.487 830.309 357.915 823.602 357.915C816.685 357.915 810.502 359.487 805.052 362.631C799.812 365.775 795.62 370.386 792.476 376.465C789.332 382.333 787.76 389.565 787.76 398.158C787.76 406.752 789.332 414.193 792.476 420.481C795.62 426.559 799.812 431.171 805.052 434.315C810.502 437.459 816.685 439.031 823.602 439.031ZM861.016 483.676V454.436L861.33 398.158L858.186 341.88V250.389H917.923V483.676H861.016Z" fill="white"/>
<path d="M626.746 310.44C639.951 310.44 651.898 313.165 662.588 318.615C673.277 323.855 681.661 332.029 687.74 343.138C694.028 354.247 697.172 368.605 697.172 386.211V483.676H637.435V395.958C637.435 383.801 634.92 374.997 629.89 369.548C625.069 363.889 618.257 361.059 609.454 361.059C603.166 361.059 597.402 362.526 592.162 365.461C586.921 368.185 582.834 372.482 579.9 378.351C576.965 384.22 575.498 391.87 575.498 401.302V483.676H515.762V313.27H572.669V361.688L561.664 347.54C568.162 335.173 577.07 325.951 588.389 319.872C599.707 313.584 612.493 310.44 626.746 310.44Z" fill="white"/>
<path d="M369.76 486.506C355.926 486.506 343.455 483.781 332.346 478.331C321.447 472.881 312.853 464.393 306.565 452.865C300.486 441.127 297.447 426.35 297.447 408.534V313.27H357.184V398.787C357.184 411.992 359.594 421.424 364.415 427.084C369.445 432.743 376.467 435.572 385.48 435.572C391.349 435.572 396.694 434.21 401.514 431.485C406.335 428.76 410.213 424.464 413.147 418.595C416.082 412.516 417.549 404.761 417.549 395.329V313.27H477.285V483.676H420.379V435.572L431.383 449.092C425.514 461.668 417.025 471.1 405.916 477.388C394.807 483.466 382.755 486.506 369.76 486.506Z" fill="white"/>
<path d="M0.932617 483.676V263.594H52.1802L143.357 413.25H116.318L204.98 263.594H256.227L256.856 483.676H199.635L199.006 350.684H208.753L142.414 461.982H114.746L46.521 350.684H58.4683V483.676H0.932617Z" fill="white"/>
</g>
</svg>
