<svg width="648" height="228" viewBox="0 0 648 228" fill="none" xmlns="http://www.w3.org/2000/svg">
<path d="M602.677 162.788V166.288H606.177H640.474H643.974V162.788V104.465C643.974 87.1694 639.064 73.7917 628.572 65.1556C618.429 56.5724 604.342 52.523 586.801 52.523C578.226 52.523 569.603 53.6615 560.937 55.9262C552.374 58.0688 544.9 61.1758 538.578 65.2987L535.972 66.9984L537.355 69.7858L549.756 94.7817L551.669 98.6377L555.054 95.9783C558.272 93.4496 562.255 91.4361 567.073 89.9906L567.111 89.9791L567.149 89.9668C571.994 88.3921 576.732 87.6192 581.375 87.6192C588.769 87.6192 593.317 89.1815 595.855 91.5315L595.904 91.5771L595.955 91.6208C597.613 93.0423 598.832 94.8853 599.518 97.2831H582.731C571.657 97.2831 562.356 98.5944 554.977 101.374C547.632 104.011 541.875 108.003 538.014 113.497L538.009 113.505L538.003 113.513C534.311 118.83 532.534 125.105 532.534 132.173C532.534 138.845 534.175 144.968 537.496 150.456L537.513 150.484L537.531 150.512C541.017 156.031 545.996 160.32 552.323 163.414C558.735 166.549 566.398 168.032 575.175 168.032C584.773 168.032 592.872 166.143 599.174 162.04L599.182 162.035L599.19 162.029C600.433 161.21 601.595 160.317 602.677 159.354V162.788ZM587.769 123.466H600.158V128.412C598.851 131.601 596.943 133.861 594.477 135.383C591.831 136.967 588.849 137.78 585.444 137.78C581.685 137.78 579.183 136.926 577.537 135.627C575.955 134.378 575.187 132.822 575.187 130.623C575.187 128.372 575.934 126.811 577.378 125.592C578.878 124.432 582.048 123.466 587.769 123.466Z" stroke="white" stroke-width="7"/>
<path d="M448.321 60.4396C445.311 62.3603 442.583 64.5614 440.137 67.0373C438.019 64.5168 435.574 62.3273 432.793 60.4862C425.057 55.1498 416.091 52.523 406.031 52.523C397.201 52.523 389.106 54.5977 381.827 58.7917C380.55 59.505 379.321 60.2796 378.141 61.1146V57.7669V54.2669H374.641H339.569H336.069V57.7669V162.788V166.288H339.569H376.385H379.885V162.788V110.665C379.885 105.545 380.621 101.715 381.876 98.9813C383.319 95.9947 385.094 93.9905 387.11 92.7331C389.355 91.4145 391.948 90.7194 394.987 90.7194C399.116 90.7194 401.899 92.0917 403.85 94.5999L403.894 94.6569L403.941 94.7119C405.983 97.1255 407.375 101.531 407.375 108.728V162.788V166.288H410.875H447.691H451.191V162.788V110.665C451.191 105.529 451.932 101.691 453.194 98.9558L453.205 98.9332L453.215 98.9106C454.517 95.9804 456.264 94.0051 458.385 92.7517C460.657 91.4093 463.201 90.7194 466.099 90.7194C470.065 90.7194 472.9 92.071 475.012 94.662L475.032 94.6872L475.053 94.7119C477.095 97.1255 478.488 101.531 478.488 108.728V162.788V166.288H481.988H518.803H522.303V162.788V102.721C522.303 91.5113 520.375 82.0372 516.267 74.5174C512.343 67.0988 506.809 61.5269 499.674 57.9495C492.783 54.3016 484.985 52.523 476.369 52.523C465.94 52.523 456.553 55.1394 448.321 60.4396Z" stroke="white" stroke-width="7"/>
<path d="M256.122 172.102C244.985 172.102 235.368 169.591 227.189 164.61C219.011 159.63 212.681 152.797 208.202 144.194C203.845 135.468 201.667 125.589 201.667 114.64C201.667 100.604 204.133 89.367 209.065 80.9288C214.12 72.3261 221.189 66.0696 230.189 62.2004C239.19 58.1665 249.67 56.1496 261.63 56.1496H321.592V79.694H295.207C298.988 83.1516 302.029 86.8561 304.29 90.7253C306.673 94.5945 308.358 98.7929 309.345 103.238C310.454 107.56 311.03 112.335 311.03 117.604C311.03 123.696 309.961 129.952 307.865 136.332C305.769 142.712 302.44 148.598 297.96 154.032C293.604 159.465 287.891 163.828 280.864 167.162C273.959 170.496 265.739 172.143 256.163 172.143L256.122 172.102ZM256.533 147.117C262.041 147.117 266.397 145.717 269.644 142.959C273.014 140.037 275.397 136.168 276.836 131.311C278.398 126.33 279.179 120.814 279.179 114.846C279.179 108.877 278.768 104.103 277.904 99.6573C277.206 95.2119 276.014 91.3427 274.329 88.0086C272.767 84.6745 270.753 81.9167 268.205 79.694H262.493C256.739 79.694 251.643 80.723 247.286 82.8223C242.93 84.9215 239.56 88.5026 237.135 93.6477C234.874 98.6283 233.765 105.667 233.765 114.681C233.765 121.185 234.463 126.906 235.861 131.763C237.423 136.62 239.806 140.448 243.053 143.206C246.423 145.84 250.944 147.158 256.574 147.158L256.533 147.117Z" fill="white"/>
<mask id="path-4-inside-1_169_6641" fill="white">
<path fill-rule="evenodd" clip-rule="evenodd" d="M309.332 150.32C296.392 171.965 278.182 178.077 270.842 179.078L270.748 178.994C270.721 179.001 270.694 179.008 270.667 179.015C269.75 184.188 267.706 188.41 264.494 191.514C259.948 196.025 252.565 198.26 242.263 198.26C235.84 198.26 229.25 197.184 222.451 195.073C215.778 193.086 210.189 190.313 205.642 186.713L191.836 213.118C198.51 217.754 206.518 221.272 215.861 223.631C225.329 226.031 235.298 227.19 245.683 227.19C265.954 227.19 281.637 222.306 292.732 212.497C303.826 202.688 309.332 187.582 309.332 167.219V150.32Z"/>
</mask>
<path d="M309.332 150.32H316.332V124.969L303.324 146.728L309.332 150.32ZM270.842 179.078L266.192 184.31L268.598 186.449L271.788 186.014L270.842 179.078ZM270.748 178.994L275.398 173.762L272.594 171.27L268.967 172.224L270.748 178.994ZM270.667 179.015L268.894 172.243L264.558 173.378L263.775 177.792L270.667 179.015ZM264.494 191.514L259.63 186.48L259.596 186.512L259.564 186.545L264.494 191.514ZM222.451 195.073L224.527 188.388L224.488 188.376L224.448 188.364L222.451 195.073ZM205.642 186.713L209.988 181.225L203.358 175.974L199.439 183.469L205.642 186.713ZM191.836 213.118L185.633 209.875L182.773 215.346L187.843 218.867L191.836 213.118ZM215.861 223.631L217.581 216.845L217.575 216.844L215.861 223.631ZM292.732 212.497L288.095 207.253L292.732 212.497ZM303.324 146.728C291.642 166.269 275.472 171.382 269.896 172.142L271.788 186.014C280.892 184.772 301.142 177.661 315.34 153.912L303.324 146.728ZM275.493 173.846L275.398 173.762L266.097 184.225L266.192 184.31L275.493 173.846ZM268.967 172.224C268.943 172.23 268.919 172.236 268.894 172.243L272.44 185.786C272.47 185.779 272.499 185.771 272.528 185.763L268.967 172.224ZM263.775 177.792C263.057 181.84 261.565 184.61 259.63 186.48L269.359 196.547C273.847 192.209 276.443 186.536 277.56 180.237L263.775 177.792ZM259.564 186.545C256.937 189.151 251.802 191.26 242.263 191.26V205.26C253.328 205.26 262.959 202.899 269.425 196.483L259.564 186.545ZM242.263 191.26C236.631 191.26 230.742 190.318 224.527 188.388L220.376 201.758C227.757 204.05 235.049 205.26 242.263 205.26V191.26ZM224.448 188.364C218.454 186.58 213.707 184.17 209.988 181.225L201.296 192.2C206.67 196.457 213.101 199.593 220.454 201.782L224.448 188.364ZM199.439 183.469L185.633 209.875L198.04 216.362L211.846 189.956L199.439 183.469ZM187.843 218.867C195.315 224.058 204.126 227.887 214.147 230.418L217.575 216.844C208.911 214.656 201.704 211.45 195.83 207.369L187.843 218.867ZM214.141 230.416C224.226 232.973 234.777 234.19 245.683 234.19V220.19C235.819 220.19 226.433 219.09 217.581 216.845L214.141 230.416ZM245.683 234.19C267.022 234.19 284.584 229.044 297.368 217.742L288.095 207.253C278.69 215.569 264.886 220.19 245.683 220.19V234.19ZM297.368 217.742C310.477 206.153 316.332 188.787 316.332 167.219H302.332C302.332 186.377 297.176 199.224 288.095 207.253L297.368 217.742ZM316.332 167.219V150.32H302.332V167.219H316.332Z" fill="white" mask="url(#path-4-inside-1_169_6641)"/>
<path d="M138.706 162.788V166.288H142.206H179.021H182.521V162.788V57.7668V54.2668H179.021H142.206H138.706V57.7668V162.788ZM179.281 43.0776L179.284 43.075C184.144 38.5189 186.591 32.7412 186.591 25.9891C186.591 19.4459 184.101 13.9415 179.171 9.7707C174.269 5.49234 167.97 3.5 160.614 3.5C153.214 3.5 146.891 5.58186 141.987 10.0258C137.125 14.4321 134.637 20.0229 134.637 26.5704C134.637 33.1179 137.125 38.7087 141.987 43.1151C146.891 47.559 153.214 49.6408 160.614 49.6408C168.117 49.6408 174.477 47.5715 179.281 43.0776Z" stroke="white" stroke-width="7"/>
<path d="M33.0569 164.804L33.0821 164.811L33.1073 164.817C43.7429 167.609 54.7639 169.001 66.1612 169.001C79.908 169.001 91.5508 166.957 100.931 162.684C110.297 158.474 117.522 152.8 122.355 145.553C127.251 138.277 129.729 130.304 129.729 121.71C129.729 114.176 128.227 107.635 124.982 102.301C122.001 97.0665 118.004 92.8479 113.008 89.7007C108.207 86.5498 102.885 84.0984 97.0617 82.3334C91.5274 80.4906 85.9256 78.9755 80.257 77.7887C74.8639 76.633 69.8562 75.5417 65.2336 74.5146C60.9871 73.4188 57.6871 72.1247 55.2383 70.6925C53.4451 69.4724 52.8035 68.1358 52.8035 66.4864C52.8035 64.936 53.2563 63.6327 54.187 62.4482C55.0158 61.3934 56.615 60.2723 59.4772 59.3565L59.537 59.3373L59.596 59.3161C62.2969 58.3437 66.1117 57.7791 71.1991 57.7791C76.7832 57.7791 82.5951 58.6285 88.6454 60.3571L88.6773 60.3663L88.7094 60.3748C94.7431 61.9755 100.882 64.4497 107.127 67.8221L110.537 69.6637L112.023 66.0839L123.842 37.6002L125.02 34.7625L122.359 33.2271C115.302 29.156 107.286 26.1347 98.346 24.1305C89.5555 22.002 80.569 20.939 71.3929 20.939C57.7616 20.939 46.1268 22.9868 36.6306 27.2532C27.2621 31.4622 19.9854 37.1298 15.0275 44.3542L15.0141 44.3736L15.0011 44.3932C10.2146 51.5729 7.8252 59.6152 7.8252 68.424C7.8252 76.1024 9.33295 82.7727 12.5797 88.2331L12.5905 88.2513L12.6016 88.2694C15.7107 93.3571 19.7545 97.5446 24.7106 100.802L24.7402 100.821L24.7702 100.84C29.5443 103.841 34.7739 106.282 40.446 108.173L40.4576 108.176L40.4692 108.18C46.1329 110.024 51.7398 111.542 57.2896 112.731L57.2978 112.733L57.3059 112.735C62.8194 113.889 67.8047 115.039 72.2651 116.186C76.5566 117.29 79.8653 118.655 82.3024 120.206C84.2391 121.438 84.9443 122.831 84.9443 124.616C84.9443 125.894 84.5274 126.994 83.5473 128.055L83.5391 128.064C82.7145 128.964 81.0686 130.007 78.1388 130.951C75.345 131.724 71.4565 132.161 66.3549 132.161C58.8545 132.161 51.2663 130.995 43.5798 128.643C35.9512 126.139 29.2597 123.031 23.478 119.341L20.051 117.153L18.3974 120.868L5.80256 149.158L4.61267 151.83L7.03191 153.475C13.8953 158.142 22.6068 161.894 33.0569 164.804Z" stroke="white" stroke-width="7"/>
</svg>
